<svg width="158" height="29" viewBox="0 0 158 29" fill="none" xmlns="http://www.w3.org/2000/svg">
<g clip-path="url(#clip0_15_284)">
<path d="M74.4656 28.2067C73.2949 27.9685 72.2306 27.6438 71.4537 27.2758C70.5704 26.8428 69.1229 25.9661 68.7611 25.6305C68.6121 25.4898 68.3247 25.2625 68.1119 25.111C67.3669 24.5698 65.696 22.4591 64.951 21.0844C64.4507 20.1752 63.6845 17.8697 63.5035 16.7115C63.312 15.5317 63.2907 13.0747 63.4503 11.9057C63.9186 8.51774 65.8024 5.16229 68.495 2.93254C69.5593 2.05579 70.4426 1.53624 71.9646 0.886798C73.0288 0.443013 73.5503 0.291478 74.5188 0.150765C79.0314 -0.531149 82.8415 0.724434 86.0024 3.9067L87.1093 5.02158L86.8432 5.23806C86.6942 5.36795 86.1195 5.79009 85.5767 6.19058C85.0233 6.60189 84.2783 7.14309 83.9058 7.41369C83.5439 7.68429 83.214 7.90077 83.1608 7.90077C83.1182 7.90077 82.7564 7.58687 82.3626 7.20803C80.5959 5.54113 78.2438 4.70768 75.9769 4.96746C74.7211 5.10817 74.0399 5.32465 72.9756 5.8875C71.475 6.67766 70.5384 7.5544 69.5699 9.09142C68.6121 10.596 68.2183 12.068 68.2396 14.1571C68.2396 15.6724 68.3141 16.1487 68.6866 17.3177C69.5487 20.0345 71.6666 22.1885 74.3592 23.0761C75.3064 23.39 77.1476 23.509 78.0842 23.325C79.0952 23.1302 80.5001 22.5457 81.3409 21.972C82.469 21.1927 84.2357 19.1469 84.0441 18.833C84.0016 18.7681 82.8522 18.7248 80.9684 18.7248C78.1906 18.7248 77.9458 18.714 77.8926 18.5408C77.8607 18.4326 77.6053 17.9347 77.3392 17.4259C76.2323 15.3802 75.4873 13.8756 75.5512 13.8107C75.5938 13.7782 78.9037 13.7458 82.9054 13.7458H90.1957L90.1318 15.1312C90.0041 17.8156 89.1208 20.3701 87.5563 22.6215C85.6193 25.4032 83.1076 27.1459 79.6806 28.0876C78.7972 28.3366 75.4873 28.4123 74.4656 28.2067Z" fill="#D5121E"/>
<path d="M0.335938 14.1777V0.755859H9.38232H18.4287V3.24539V5.73492H11.8302H5.23163V9.73981V13.7447H11.2448C14.5547 13.7447 17.258 13.7772 17.258 13.8205C17.258 13.8529 16.8855 14.6215 16.4172 15.5198C15.9596 16.4182 15.3955 17.5115 15.1826 17.9444L14.7782 18.7238H10.0102H5.23163L5.21034 23.14L5.17841 27.5453L2.7625 27.5778L0.335938 27.5995V14.1777Z" fill="#D5121E"/>
<path d="M23.9822 14.2101L24.0142 0.80998L26.4407 0.777509L28.8566 0.755859V14.1777V27.5995H26.4088H23.9609L23.9822 14.2101Z" fill="#D5121E"/>
<path d="M36.4005 27.5251C36.3792 27.471 36.3685 26.8756 36.3792 26.1937C36.3792 25.5118 36.3898 19.4937 36.4005 12.826L36.4217 0.703125L39.8594 0.735596L43.297 0.768067L43.5844 1.33092C43.7333 1.63399 44.191 2.52156 44.5954 3.30089C44.9892 4.08022 45.7448 5.54147 46.2557 6.5481C46.7772 7.56556 47.5115 8.99434 47.8947 9.74119C48.2778 10.4881 48.8738 11.657 49.225 12.339C49.5762 13.0209 50.002 13.8543 50.1829 14.179C50.4809 14.7311 50.8853 15.5104 52.6201 18.9092C52.9819 19.6452 53.3119 20.2405 53.3438 20.2405C53.3757 20.2405 53.4077 15.8568 53.4183 10.4989C53.4289 5.14098 53.4609 0.757245 53.4928 0.757245C53.5247 0.757245 54.6209 0.757245 55.93 0.757245H58.2927L58.2821 13.8868C58.2821 21.0956 58.2714 27.1354 58.2608 27.3086L58.2395 27.6009H54.8019H51.3749L51.1407 27.1462C50.5554 25.9881 48.8525 22.6867 48.3736 21.7559C48.0756 21.193 47.4264 19.9266 46.9262 18.9416C46.426 17.9566 45.8406 16.8201 45.6278 16.398C45.4149 15.9867 44.7976 14.7852 44.2655 13.7461C43.7334 12.707 43.0309 11.3432 42.7116 10.7154C42.3817 10.0876 41.9454 9.25411 41.7431 8.85362C41.5409 8.44231 41.3494 8.11759 41.3174 8.11759C41.2855 8.11759 41.2642 12.4905 41.2642 17.8267V27.5467L38.8483 27.5792C37.518 27.59 36.4217 27.5684 36.4005 27.5251Z" fill="#D5121E"/>
<path d="M95.1562 14.1777V0.755859H101.787C105.661 0.755859 108.673 0.799156 109.056 0.8641C111.887 1.32953 114.196 3.09385 115.516 5.78904C116.474 7.75901 116.676 9.8264 116.112 12.0562C115.537 14.3509 113.824 16.5481 111.759 17.663C110.982 18.0851 111.014 18.0418 111.174 18.4315C111.259 18.6155 111.589 19.2866 111.919 19.9144C113.068 22.0792 115.803 27.4479 115.803 27.5345C115.803 27.567 114.622 27.5886 113.185 27.5778L110.567 27.5453L110.141 26.7335C109.918 26.2898 109.301 25.0991 108.79 24.0817C107.076 20.7262 106.523 19.6438 106.257 19.1892L106.001 18.7238H103.032C100.722 18.7238 100.052 18.7562 100.052 18.8645C100.041 18.9294 100.031 20.921 100.02 23.2699L99.9987 27.5453L97.5828 27.5778L95.1562 27.5995V14.1777ZM108.949 13.5066C109.662 13.2143 110.716 12.2835 111.025 11.6773C112.078 9.5558 111.269 7.14204 109.152 6.10294L108.417 5.73492H104.235C100.318 5.73492 100.052 5.74574 100.052 5.92975C100.052 7.99714 100.041 13.5066 100.052 13.6148C100.052 13.7122 100.957 13.7447 104.203 13.7447C108.247 13.7447 108.364 13.7339 108.949 13.5066Z" fill="#D5121E"/>
<path d="M122.414 14.1777V0.755859H124.862H127.31V14.1777V27.5995H124.862H122.414V14.1777Z" fill="#D5121E"/>
<path d="M134.859 14.1885V0.755859H140.436C145.534 0.755859 146.109 0.77751 147.067 0.961519C153.154 2.19546 157.507 7.28275 157.816 13.539C157.88 14.6539 157.731 16.4724 157.529 17.1543C156.996 18.9078 156.815 19.4381 156.443 20.185C155.24 22.6204 153.176 24.7744 150.77 26.1166C150.206 26.4305 148.78 26.9608 147.737 27.2531L146.726 27.5237L140.798 27.567L134.859 27.6103V14.1885ZM146.588 22.4148C149.163 21.7437 151.228 19.9469 152.314 17.4357C153.601 14.4374 152.91 10.7032 150.611 8.32186C149.525 7.19616 148.674 6.65496 147.12 6.09211L146.3 5.78904H143.054C141.266 5.78904 139.798 5.82151 139.787 5.87563C139.766 5.91892 139.755 9.69651 139.755 14.2859V22.6204H142.767C145.406 22.6204 145.885 22.5988 146.588 22.4148Z" fill="#D5121E"/>
</g>
<defs>
<clipPath id="clip0_15_284">
<rect width="158" height="28.359" fill="white"/>
</clipPath>
</defs>
</svg>
